<?xml version="1.0" encoding="utf-8"?>
<!-- Generator: Adobe Illustrator 25.3.0, SVG Export Plug-In . SVG Version: 6.00 Build 0)  -->
<svg version="1.1" id="Шар_1" xmlns="http://www.w3.org/2000/svg" xmlns:xlink="http://www.w3.org/1999/xlink" x="0px" y="0px"
	 viewBox="0 0 1366 768" style="enable-background:new 0 0 1366 768;" xml:space="preserve">
<style type="text/css">
	.st0{fill:#FFFFFF;}
	.st1{fill:#0000FF;}
	.st2{font-family:'BaskOldFace';}
	.st3{font-size:100px;}
	.st4{fill:#1A00E9;}
	.st5{fill:#5FB9FF;}
	.st6{fill:#2500DF;}
	.st7{fill:#00E3F4;}
	.st8{fill:#15FBFF;}
	.st9{fill:#1FA3FF;}
	.st10{fill:#2D00C9;}
	.st11{fill:#F3FF8A;}
	.st12{fill:#FFD20A;}
	.st13{fill:#FFE60A;}
	.st14{fill:#EDFF0A;}
	.st15{fill:#FFDD74;}
</style>
<rect class="st0" width="1366" height="768"/>
<polygon class="st0" points="0,343.6 448.9,661 0,661 "/>
<polygon class="st0" points="273.5,537 876.2,661 448.9,661 "/>
<g>
	<g>
		<g>
			<path class="st1" d="M1236.8,460c-51.8,0-93.8,42-93.8,93.8s42,93.8,93.8,93.8s93.8-42,93.8-93.8
				C1330.5,502,1288.5,460,1236.8,460z M1236.8,633.7c-44.2,0-80-35.8-80-80s35.8-80,80-80s80,35.8,80,80
				C1316.7,597.9,1280.9,633.7,1236.8,633.7z"/>
		</g>
	</g>
	<g>
		<g>
			<text transform="matrix(1 0 0 1 1167.7271 590.2827)" class="st1 st2 st3">VK</text>
		</g>
	</g>
</g>
<polygon class="st4" points="0,343.6 143.8,445.3 71.9,553.2 0,661 "/>
<polygon class="st5" points="0,661 64.7,563.9 193.3,661 "/>
<polygon class="st6" points="375.6,609.1 243.8,661 448.9,661 "/>
<polygon class="st7" points="193.3,661 375.6,609.1 243.8,661 "/>
<polygon class="st8" points="143.8,445.3 193.3,661 64.7,563.9 "/>
<polygon class="st9" points="273.5,537 193.3,661 375.6,609.1 "/>
<polygon class="st10" points="273.5,537 193.3,661 143.8,445.3 "/>
<g>
	<polygon class="st11" points="273.5,537 448.9,661 531.7,661 	"/>
	<polygon class="st12" points="691.2,622.9 531.7,661 876.2,661 	"/>
	<polygon class="st13" points="691.2,622.9 531.7,661 591.7,602.5 	"/>
	<polygon class="st14" points="591.7,602.5 448.9,573.1 531.7,661 	"/>
	<polygon class="st15" points="448.9,573.1 273.5,537 531.7,661 	"/>
</g>
</svg>
